<svg width="1132" height="190" xmlns="http://www.w3.org/2000/svg" xmlns:xlink="http://www.w3.org/1999/xlink" xml:space="preserve" overflow="hidden"><defs><clipPath id="clip0"><rect x="303" y="597" width="1132" height="190"/></clipPath></defs><g clip-path="url(#clip0)" transform="translate(-303 -597)"><path d="M1358.37 765.227C1357.82 765.412 1357.31 765.628 1356.84 765.875 1356.38 766.122 1355.93 766.369 1355.5 766.616 1355.19 766.802 1354.86 766.987 1354.52 767.172 1354.18 767.358 1353.83 767.543 1353.46 767.728 1352.65 768.902 1351.85 770.122 1351.04 771.388 1350.24 772.654 1349.53 773.905 1348.91 775.14 1348.66 775.758 1348.41 776.376 1348.17 776.993 1347.92 777.611 1347.7 778.229 1347.52 778.847 1348.38 778.785 1349.26 778.63 1350.16 778.383 1351.06 778.136 1351.91 777.796 1352.71 777.364 1354.45 776.252 1355.75 774.816 1356.61 773.056 1357.48 771.295 1358 769.489 1358.19 767.636 1358.25 767.203 1358.3 766.786 1358.33 766.385 1358.36 765.983 1358.37 765.597 1358.37 765.227ZM1352.71 761.799C1352.1 762.169 1351.46 762.509 1350.81 762.817 1350.16 763.126 1349.5 763.435 1348.82 763.744 1348.63 763.806 1348.44 763.883 1348.26 763.976 1348.07 764.068 1347.92 764.146 1347.8 764.207 1345.63 765.134 1343.65 766.246 1341.86 767.543 1340.06 768.84 1339.01 770.755 1338.7 773.287 1338.95 774.09 1339.44 774.693 1340.19 775.094 1340.93 775.496 1341.7 775.696 1342.51 775.696 1342.81 775.696 1343.12 775.665 1343.43 775.604 1343.74 775.542 1344.02 775.48 1344.27 775.418 1346.81 774.43 1348.71 772.793 1349.98 770.508 1351.24 768.222 1352.1 765.813 1352.53 763.281 1352.59 763.034 1352.64 762.787 1352.67 762.54 1352.7 762.292 1352.71 762.045 1352.71 761.799ZM1336.84 756.332C1335.11 759.729 1333.24 763.065 1331.23 766.338 1329.22 769.612 1327.01 772.793 1324.59 775.882 1324.53 775.634 1324.46 775.372 1324.36 775.094 1324.27 774.816 1324.22 774.554 1324.22 774.306 1324.16 774.059 1324.11 773.797 1324.08 773.519 1324.05 773.241 1324.04 772.978 1324.04 772.731 1324.04 771.187 1324.32 769.689 1324.87 768.238 1325.43 766.786 1326.08 765.381 1326.82 764.022 1328.12 762.169 1329.65 760.64 1331.42 759.436 1333.18 758.231 1334.99 757.197 1336.84 756.332ZM574.29 755.375C573.3 756.857 572.682 758.71 572.434 760.934 572.187 763.157 571.98 765.587 571.815 768.222 571.815 768.552 571.774 768.84 571.692 769.087 571.609 769.334 571.568 769.623 571.568 769.952 571.403 774.234 570.702 778.147 569.464 781.688 568.227 785.229 565.299 787 560.679 787 559.854 787 558.947 786.918 557.957 786.753 556.967 786.588 555.894 786.423 554.74 786.259 555.729 784.612 556.719 782.964 557.709 781.317 558.699 779.67 559.606 778.023 560.431 776.376 562.576 772.752 564.762 769.128 566.99 765.505 569.217 761.881 571.651 758.504 574.29 755.375ZM1414.21 747.623C1412.79 748.055 1411.43 748.75 1410.13 749.707 1408.83 750.665 1407.81 751.823 1407.07 753.182 1406.32 754.541 1405.64 756.054 1405.02 757.722 1404.41 759.389 1404 761.119 1403.82 762.91 1403.82 763.219 1403.8 763.528 1403.77 763.837 1403.74 764.146 1403.73 764.454 1403.73 764.763 1403.79 765.999 1403.97 767.218 1404.28 768.423 1404.59 769.628 1405.12 770.755 1405.86 771.805 1406.11 772.114 1406.39 772.33 1406.69 772.454 1407 772.577 1407.31 772.639 1407.62 772.639 1407.75 772.639 1407.85 772.639 1407.95 772.639 1408.04 772.639 1408.12 772.639 1408.18 772.639 1408.3 772.639 1408.41 772.623 1408.5 772.592 1408.6 772.562 1408.67 772.546 1408.74 772.546 1408.92 772.546 1409.11 772.531 1409.29 772.5 1409.48 772.469 1409.63 772.454 1409.76 772.454 1410.07 772.454 1410.3 772.484 1410.45 772.546 1410.61 772.608 1410.72 772.793 1410.78 773.102 1410.96 774.029 1411.47 774.801 1412.31 775.418 1413.14 776.036 1414.06 776.345 1415.05 776.345 1415.11 776.345 1415.16 776.345 1415.19 776.345 1415.22 776.345 1415.26 776.345 1415.33 776.345 1415.33 776.345 1415.34 776.345 1415.37 776.345 1415.4 776.345 1415.45 776.345 1415.51 776.345 1415.57 776.345 1415.65 776.329 1415.74 776.298 1415.84 776.268 1415.91 776.252 1415.98 776.252 1417.27 775.82 1418.5 775.14 1419.64 774.214 1420.79 773.287 1421.7 772.237 1422.38 771.064 1423.12 769.581 1423.79 767.944 1424.37 766.153 1424.96 764.362 1425.35 762.54 1425.53 760.686 1425.53 760.316 1425.55 759.961 1425.58 759.621 1425.61 759.281 1425.63 758.957 1425.63 758.648 1425.63 757.227 1425.46 755.853 1425.12 754.525 1424.78 753.197 1424.2 751.946 1423.4 750.773 1423.03 750.896 1422.67 751.128 1422.33 751.467 1421.99 751.807 1421.67 752.193 1421.36 752.626 1421.3 752.688 1421.23 752.765 1421.17 752.857 1421.11 752.95 1421.05 753.058 1420.99 753.182 1420.8 753.429 1420.62 753.676 1420.43 753.923 1420.24 754.17 1420.03 754.417 1419.78 754.664 1419.53 754.232 1419.35 753.83 1419.22 753.46 1419.1 753.089 1419.01 752.688 1418.95 752.255 1418.88 752.07 1418.84 751.885 1418.81 751.699 1418.77 751.514 1418.73 751.329 1418.67 751.143 1418.67 751.02 1418.64 750.911 1418.57 750.819 1418.51 750.726 1418.48 750.618 1418.48 750.495 1418.11 749.754 1417.58 749.074 1416.9 748.456 1416.22 747.839 1415.45 747.561 1414.58 747.623 1414.58 747.623 1414.57 747.623 1414.54 747.623 1414.51 747.623 1414.46 747.623 1414.4 747.623 1414.34 747.623 1414.29 747.623 1414.26 747.623 1414.23 747.623 1414.21 747.623 1414.21 747.623ZM1347.15 738.265C1347.15 738.265 1347.16 738.265 1347.19 738.265 1347.22 738.265 1347.27 738.265 1347.33 738.265 1347.39 738.327 1347.44 738.357 1347.47 738.357 1347.5 738.357 1347.55 738.357 1347.61 738.357L1345.75 742.99C1346.37 742.99 1347.04 742.928 1347.75 742.805 1348.46 742.681 1349.19 742.589 1349.93 742.527 1350.3 742.465 1350.69 742.403 1351.09 742.341 1351.49 742.279 1351.88 742.218 1352.25 742.156 1352.74 742.094 1353.22 742.048 1353.69 742.017 1354.15 741.986 1354.6 741.971 1355.03 741.971 1356.52 742.032 1357.9 742.326 1359.16 742.851 1360.43 743.376 1361.41 744.441 1362.09 746.047 1362.21 746.48 1362.29 746.897 1362.32 747.298 1362.35 747.7 1362.37 748.148 1362.37 748.642 1362.37 748.889 1362.37 749.12 1362.37 749.336 1362.37 749.553 1362.33 749.754 1362.27 749.939 1362.21 750.618 1362.12 751.282 1361.99 751.931 1361.87 752.58 1361.75 753.213 1361.62 753.83 1362.24 753.583 1362.75 753.213 1363.15 752.718 1363.56 752.224 1363.94 751.699 1364.31 751.143 1364.31 751.143 1364.31 751.128 1364.31 751.097 1364.31 751.066 1364.35 751.051 1364.41 751.051 1364.78 750.495 1365.17 749.954 1365.57 749.429 1365.97 748.904 1366.48 748.518 1367.1 748.271 1367.41 749.074 1367.64 749.954 1367.79 750.911 1367.95 751.869 1368.03 752.873 1368.03 753.923 1368.03 754.17 1368.03 754.448 1368.03 754.757 1368.03 755.065 1368 755.344 1367.93 755.591 1367.87 756.764 1367.76 757.938 1367.61 759.111 1367.45 760.285 1367.25 761.428 1367.01 762.54 1367.01 762.725 1366.99 762.91 1366.96 763.096 1366.93 763.281 1366.88 763.466 1366.82 763.651 1366.7 764.146 1366.59 764.655 1366.5 765.18 1366.4 765.705 1366.29 766.215 1366.17 766.709 1365.98 767.574 1365.8 768.454 1365.61 769.349 1365.43 770.245 1365.24 771.126 1365.06 771.99 1364.87 773.102 1364.72 774.214 1364.59 775.326 1364.47 776.437 1364.41 777.549 1364.41 778.661 1364.41 779.155 1364.42 779.634 1364.45 780.097 1364.48 780.56 1364.53 781.039 1364.59 781.533 1363.73 782.151 1362.77 782.583 1361.72 782.83 1360.66 783.078 1359.61 783.294 1358.56 783.479 1358.44 783.479 1358.33 783.494 1358.24 783.525 1358.14 783.556 1358.07 783.572 1358 783.572 1357.82 783.633 1357.63 783.664 1357.45 783.664 1357.26 783.664 1357.08 783.695 1356.89 783.757 1356.7 783.633 1356.58 783.479 1356.52 783.294 1356.46 783.109 1356.43 782.892 1356.43 782.645 1356.43 782.583 1356.43 782.522 1356.43 782.46 1356.43 782.398 1356.43 782.336 1356.43 782.275 1356.43 782.275 1356.43 782.244 1356.43 782.182 1356.43 782.12 1356.43 782.058 1356.43 781.997 1356.43 781.75 1356.41 781.518 1356.38 781.302 1356.35 781.086 1356.21 780.916 1355.96 780.792 1354.6 782.707 1352.71 784.189 1350.3 785.24 1347.89 786.29 1345.38 786.876 1342.78 787 1342.85 786.753 1342.92 786.506 1343.02 786.259 1343.11 786.012 1343.22 785.765 1343.34 785.517 1343.46 785.209 1343.6 784.915 1343.76 784.637 1343.91 784.359 1344.05 784.097 1344.18 783.85 1344.42 783.356 1344.67 782.861 1344.92 782.367 1345.17 781.873 1345.35 781.348 1345.48 780.792 1345.04 780.978 1344.61 781.163 1344.18 781.348 1343.74 781.533 1343.28 781.75 1342.78 781.997 1341.92 782.429 1341.01 782.815 1340.05 783.155 1339.09 783.494 1338.08 783.664 1337.03 783.664 1336.66 783.664 1336.27 783.633 1335.87 783.572 1335.47 783.51 1335.05 783.417 1334.62 783.294 1333.44 782.985 1332.48 782.398 1331.74 781.533 1331 780.669 1330.38 779.68 1329.88 778.568 1329.82 778.136 1329.78 777.719 1329.74 777.318 1329.71 776.916 1329.7 776.499 1329.7 776.067 1329.7 775.943 1329.7 775.835 1329.7 775.742 1329.7 775.65 1329.7 775.542 1329.7 775.418 1329.76 773.38 1330.22 771.419 1331.09 769.535 1331.96 767.651 1333.13 766.091 1334.62 764.856 1335.92 763.62 1337.32 762.632 1338.84 761.891 1340.36 761.15 1341.89 760.501 1343.43 759.945 1343.56 759.884 1343.68 759.837 1343.8 759.806 1343.93 759.776 1344.02 759.729 1344.08 759.668 1345.94 758.988 1347.72 758.231 1349.42 757.397 1351.12 756.563 1352.62 755.375 1353.92 753.83 1354.04 753.583 1354.12 753.352 1354.15 753.135 1354.18 752.919 1354.2 752.718 1354.2 752.533 1354.2 752.41 1354.2 752.317 1354.2 752.255 1354.2 752.193 1354.2 752.101 1354.2 751.977 1354.14 751.792 1354.09 751.606 1354.06 751.421 1354.03 751.236 1353.98 751.051 1353.92 750.865 1353.86 750.803 1353.81 750.726 1353.78 750.634 1353.75 750.541 1353.7 750.464 1353.64 750.402 1353.46 750.155 1353.24 749.939 1352.99 749.754 1352.74 749.568 1352.47 749.475 1352.16 749.475 1352.1 749.475 1352.03 749.475 1351.97 749.475 1351.91 749.475 1351.88 749.475 1351.88 749.475 1351.82 749.475 1351.76 749.475 1351.69 749.475 1351.63 749.475 1351.57 749.475 1351.51 749.475 1349.65 749.475 1347.9 749.877 1346.26 750.68 1344.62 751.483 1343.37 752.718 1342.51 754.386 1342.51 755.375 1342.18 755.992 1341.53 756.239 1340.88 756.486 1340.15 756.672 1339.35 756.795 1339.35 756.795 1339.33 756.795 1339.3 756.795 1339.27 756.795 1339.26 756.795 1339.26 756.795 1339.2 756.795 1339.12 756.811 1339.03 756.842 1338.93 756.872 1338.86 756.888 1338.79 756.888L1338.05 756.888C1338.36 756.27 1338.68 755.668 1339.03 755.081 1339.37 754.494 1339.69 753.892 1340 753.274 1340.12 753.089 1340.25 752.888 1340.37 752.672 1340.49 752.456 1340.62 752.224 1340.74 751.977 1341.3 750.989 1341.86 750.001 1342.41 749.012 1342.97 748.024 1343.5 747.036 1343.99 746.047 1343.99 746.047 1343.97 746.047 1343.94 746.047 1343.91 746.047 1343.87 746.047 1343.8 746.047 1343.74 746.047 1343.7 746.047 1343.67 746.047 1343.63 746.047 1343.62 746.047 1343.62 746.047 1342.32 746.109 1341.07 746.619 1339.86 747.576 1338.65 748.534 1337.65 749.599 1336.84 750.773 1336.6 751.143 1336.36 751.514 1336.15 751.885 1335.93 752.255 1335.76 752.595 1335.64 752.904 1334.96 753.213 1334.23 753.398 1333.46 753.46 1332.68 753.521 1331.93 753.583 1331.18 753.645 1331.12 753.645 1331.04 753.645 1330.95 753.645 1330.86 753.645 1330.78 753.645 1330.72 753.645 1330.47 753.707 1330.21 753.737 1329.93 753.737 1329.65 753.737 1329.36 753.768 1329.05 753.83 1329.61 750.248 1331.34 747.128 1334.25 744.472 1337.15 741.816 1340.28 740.025 1343.62 739.099 1343.74 739.037 1343.85 738.99 1343.94 738.96 1344.04 738.929 1344.14 738.913 1344.27 738.913 1344.58 738.913 1344.84 738.882 1345.06 738.82 1345.27 738.759 1345.51 738.666 1345.75 738.543 1345.75 738.543 1345.77 738.543 1345.8 738.543 1345.83 738.543 1345.88 738.543 1345.94 738.543 1346.12 738.481 1346.31 738.419 1346.5 738.357 1346.68 738.296 1346.9 738.265 1347.15 738.265ZM1232.17 731.408C1231.67 732.067 1231.18 732.726 1230.68 733.385 1230.19 734.044 1229.69 734.703 1229.2 735.362 1229.03 735.691 1228.87 735.938 1228.7 736.103 1228.54 736.267 1228.37 736.514 1228.21 736.844 1226.06 739.974 1223.96 743.144 1221.9 746.356 1219.84 749.568 1218.31 752.986 1217.32 756.61 1219.46 756.28 1221.49 755.292 1223.38 753.645 1225.28 751.998 1226.89 750.186 1228.21 748.209 1228.7 747.551 1229.16 746.933 1229.57 746.356 1229.98 745.78 1230.35 745.244 1230.68 744.75 1230.85 744.256 1231.05 743.762 1231.3 743.268 1231.55 742.774 1231.76 742.197 1231.92 741.538 1232.09 741.044 1232.29 740.55 1232.54 740.056 1232.79 739.562 1232.99 738.985 1233.16 738.327 1233.32 737.832 1233.45 737.297 1233.53 736.72 1233.61 736.144 1233.65 735.609 1233.65 735.114 1233.65 734.95 1233.61 734.744 1233.53 734.497 1233.45 734.25 1233.41 734.044 1233.41 733.879 1233.24 733.385 1233.08 732.932 1232.91 732.52 1232.75 732.108 1232.5 731.738 1232.17 731.408ZM1402.98 722.421C1402.92 723.162 1402.83 723.903 1402.7 724.645 1402.58 725.386 1402.46 726.127 1402.33 726.868 1402.33 727.054 1402.32 727.223 1402.29 727.378 1402.26 727.532 1402.24 727.702 1402.24 727.887 1401.93 729.988 1401.65 732.057 1401.4 734.095 1401.16 736.134 1400.97 738.141 1400.85 740.118 1401.16 739.871 1401.45 739.623 1401.73 739.376 1402.01 739.129 1402.3 738.882 1402.61 738.635 1402.61 738.635 1402.63 738.62 1402.66 738.589 1402.69 738.558 1402.7 738.543 1402.7 738.543 1403.26 738.048 1403.83 737.554 1404.42 737.06 1405.01 736.566 1405.67 736.257 1406.42 736.134 1406.35 736.257 1406.31 736.412 1406.28 736.597 1406.25 736.782 1406.23 736.968 1406.23 737.153 1406.23 737.214 1406.23 737.292 1406.23 737.384 1406.23 737.477 1406.23 737.585 1406.23 737.709L1406.42 738.079C1406.66 738.079 1406.83 738.017 1406.93 737.894 1407.02 737.77 1407.1 737.647 1407.16 737.523 1407.16 737.4 1407.21 737.276 1407.3 737.153 1407.39 737.029 1407.56 736.968 1407.81 736.968 1407.81 737.029 1407.82 737.106 1407.85 737.199 1407.89 737.292 1407.9 737.369 1407.9 737.431 1407.9 737.492 1407.9 737.57 1407.9 737.662 1407.9 737.755 1407.9 737.832 1407.9 737.894 1407.9 738.265 1407.85 738.666 1407.76 739.099 1407.67 739.531 1407.56 739.963 1407.44 740.396 1407.38 740.828 1407.3 741.291 1407.21 741.785 1407.11 742.279 1407.07 742.774 1407.07 743.268 1407.07 743.268 1407.07 743.283 1407.07 743.314 1407.07 743.345 1407.07 743.391 1407.07 743.453 1407.07 743.515 1407.07 743.561 1407.07 743.592 1407.07 743.623 1407.07 743.638 1407.07 743.638 1407.68 743.33 1408.3 742.99 1408.92 742.619 1409.54 742.249 1410.16 741.878 1410.78 741.507 1410.84 741.446 1410.9 741.399 1410.96 741.368 1411.03 741.338 1411.09 741.291 1411.15 741.23 1412.39 740.427 1413.64 739.685 1414.91 739.006 1416.18 738.327 1417.58 737.894 1419.13 737.709 1420.8 737.894 1422.32 738.404 1423.68 739.237 1425.04 740.071 1426.18 741.168 1427.11 742.527 1427.24 742.527 1427.36 742.48 1427.48 742.388 1427.61 742.295 1427.73 742.218 1427.85 742.156 1427.92 742.094 1427.98 742.048 1428.04 742.017 1428.1 741.986 1428.16 741.94 1428.23 741.878 1428.35 741.878 1428.46 741.863 1428.55 741.832 1428.64 741.801 1428.72 741.785 1428.78 741.785 1428.91 741.785 1429.01 741.801 1429.11 741.832 1429.2 741.863 1429.28 741.94 1429.34 742.063 1431.5 743.731 1432.99 745.769 1433.79 748.178 1434.6 750.587 1435 753.089 1435 755.683 1435 756.116 1434.98 756.548 1434.95 756.98 1434.92 757.413 1434.91 757.845 1434.91 758.278 1434.78 759.822 1434.58 761.335 1434.3 762.817 1434.03 764.3 1433.7 765.721 1433.33 767.08 1433.08 767.821 1432.79 768.593 1432.45 769.396 1432.11 770.199 1431.75 770.971 1431.38 771.712 1429.65 775.171 1427.36 778.337 1424.51 781.209 1421.67 784.081 1418.3 785.641 1414.4 785.888 1413.1 785.765 1411.92 785.425 1410.87 784.869 1409.82 784.313 1408.8 783.695 1407.81 783.016 1407.81 783.078 1407.79 783.124 1407.76 783.155 1407.73 783.186 1407.72 783.232 1407.72 783.294 1407.16 784.22 1406.49 785.07 1405.72 785.842 1404.95 786.614 1403.94 787 1402.7 787 1402.64 787 1402.6 787 1402.57 787 1402.53 787 1402.52 787 1402.52 787 1402.46 787 1402.41 787 1402.38 787 1402.35 787 1402.3 787 1402.24 787 1402.24 786.629 1402.32 786.228 1402.47 785.795 1402.63 785.363 1402.83 784.931 1403.08 784.498 1403.08 784.498 1403.09 784.483 1403.12 784.452 1403.15 784.421 1403.17 784.375 1403.17 784.313 1403.42 783.881 1403.63 783.433 1403.82 782.969 1404 782.506 1404.1 782.058 1404.1 781.626 1404.1 781.132 1403.96 780.715 1403.68 780.375 1403.4 780.035 1402.83 779.742 1401.96 779.495 1401.4 779.495 1401.02 779.68 1400.8 780.051 1400.59 780.422 1400.42 780.823 1400.29 781.255 1400.17 781.688 1400.01 782.089 1399.83 782.46 1399.64 782.83 1399.27 783.016 1398.71 783.016 1398.34 783.016 1397.97 783.047 1397.6 783.109 1397.23 783.17 1396.86 783.232 1396.49 783.294 1396.36 783.294 1396.24 783.309 1396.11 783.34 1395.99 783.371 1395.84 783.386 1395.65 783.386 1395.09 783.448 1394.52 783.525 1393.93 783.618 1393.35 783.711 1392.71 783.757 1392.03 783.757 1391.97 783.757 1391.91 783.757 1391.85 783.757 1391.78 783.757 1391.72 783.757 1391.66 783.757 1391.6 783.757 1391.54 783.757 1391.48 783.757 1391.41 783.757 1391.35 783.757 1391.29 783.757 1391.48 782.027 1391.71 780.283 1391.99 778.522 1392.26 776.762 1392.56 775.017 1392.87 773.287 1392.93 772.793 1392.99 772.33 1393.05 771.898 1393.11 771.465 1393.18 771.033 1393.24 770.6 1393.67 768.438 1394.06 766.261 1394.4 764.068 1394.74 761.876 1395.03 759.698 1395.28 757.536L1386.93 768.192 1392.5 731.223 1393.98 724.181C1395.4 723.811 1396.87 723.471 1398.39 723.162 1399.9 722.853 1401.44 722.606 1402.98 722.421ZM1391.1 719.363C1391.29 719.363 1391.48 719.363 1391.66 719.363 1391.85 719.363 1392.06 719.394 1392.31 719.456 1391.82 720.877 1391.17 722.266 1390.36 723.625 1389.56 724.984 1388.63 726.312 1387.58 727.61 1387.33 727.98 1387.08 728.335 1386.83 728.675 1386.59 729.015 1386.34 729.339 1386.09 729.648 1386.28 729.339 1386.4 728.906 1386.46 728.351 1386.53 727.795 1386.59 727.208 1386.65 726.59 1386.65 726.282 1386.66 725.972 1386.7 725.664 1386.73 725.355 1386.77 725.046 1386.83 724.737 1387.02 723.379 1387.38 722.143 1387.9 721.031 1388.43 719.919 1389.5 719.363 1391.1 719.363ZM1299.31 718.9 1297.46 733.169C1298.14 732.613 1298.74 731.964 1299.27 731.223 1299.79 730.482 1300.33 729.741 1300.89 728.999 1300.89 728.938 1300.91 728.891 1300.94 728.86 1300.97 728.829 1301.02 728.783 1301.08 728.721 1301.76 727.795 1302.44 726.884 1303.12 725.988 1303.8 725.092 1304.6 724.367 1305.53 723.811 1305.04 727.331 1304.51 730.914 1303.95 734.558 1303.4 738.203 1302.81 741.816 1302.19 745.399 1301.94 746.881 1301.7 748.364 1301.45 749.846 1301.2 751.329 1300.95 752.811 1300.71 754.293 1300.15 757.506 1299.59 760.717 1299.04 763.93 1298.48 767.141 1297.95 770.292 1297.46 773.38 1298.45 772.701 1299.31 771.882 1300.06 770.925 1300.8 769.967 1301.54 768.964 1302.28 767.913 1302.35 767.852 1302.41 767.774 1302.47 767.682 1302.53 767.589 1302.59 767.512 1302.65 767.45 1303.15 766.709 1303.64 765.983 1304.14 765.273 1304.63 764.562 1305.19 763.899 1305.81 763.281 1305.62 765.196 1305.38 767.157 1305.07 769.164 1304.76 771.172 1304.42 773.226 1304.05 775.326 1303.98 775.758 1303.92 776.16 1303.86 776.53 1303.8 776.901 1303.74 777.302 1303.68 777.735 1303.49 778.723 1303.32 779.711 1303.17 780.699 1303.01 781.688 1302.87 782.676 1302.75 783.664 1301.94 784.776 1300.84 785.517 1299.45 785.888 1298.06 786.259 1296.62 786.475 1295.14 786.537 1294.89 786.537 1294.66 786.537 1294.44 786.537 1294.22 786.537 1293.99 786.537 1293.75 786.537 1293.68 786.413 1293.65 786.274 1293.65 786.12 1293.65 785.965 1293.65 785.826 1293.65 785.703 1293.65 785.517 1293.67 785.348 1293.7 785.193 1293.73 785.039 1293.75 784.869 1293.75 784.684 1293.75 784.56 1293.76 784.468 1293.79 784.406 1293.82 784.344 1293.84 784.251 1293.84 784.128 1293.9 783.881 1293.95 783.633 1293.98 783.386 1294.01 783.14 1294.02 782.892 1294.02 782.645 1294.02 782.46 1294.01 782.275 1293.98 782.089 1293.95 781.904 1293.87 781.719 1293.75 781.533 1293.13 781.533 1292.55 781.595 1292.03 781.719 1291.5 781.842 1290.99 781.997 1290.5 782.182 1290.44 782.182 1290.39 782.197 1290.36 782.228 1290.33 782.259 1290.28 782.275 1290.22 782.275 1289.72 782.398 1289.24 782.522 1288.78 782.645 1288.32 782.769 1287.81 782.83 1287.25 782.83 1287.25 782.83 1287.23 782.83 1287.2 782.83 1287.17 782.83 1287.13 782.83 1287.06 782.83 1287 782.83 1286.96 782.83 1286.92 782.83 1286.89 782.83 1286.88 782.83 1286.88 782.83 1287.31 779.989 1287.74 777.148 1288.18 774.306 1288.61 771.465 1289.07 768.624 1289.57 765.782 1290.25 761.52 1290.99 757.258 1291.8 752.996 1292.6 748.734 1293.41 744.534 1294.21 740.396 1293.84 740.766 1293.47 741.183 1293.1 741.646 1292.72 742.11 1292.35 742.589 1291.98 743.082 1291.43 743.824 1290.88 744.611 1290.36 745.445 1289.83 746.279 1289.29 747.097 1288.73 747.9 1288.12 748.765 1287.51 749.615 1286.92 750.449 1286.34 751.282 1285.73 752.07 1285.11 752.811L1289.66 721.031C1291.08 720.414 1292.59 719.904 1294.16 719.502 1295.74 719.101 1297.46 718.9 1299.31 718.9ZM825.865 690.888 806.067 723.996C807.057 723.996 808.624 723.831 810.769 723.502 812.914 723.172 815.141 722.843 817.451 722.513 817.781 722.513 818.028 722.513 818.193 722.513 818.358 722.513 818.606 722.513 818.936 722.513 821.74 722.02 824.256 721.608 826.484 721.278 828.711 720.949 829.825 720.784 829.825 720.784ZM805.819 649.133 778.597 715.101 810.769 707.936ZM641.604 644.191 620.569 681.252C621.229 681.087 621.93 680.964 622.672 680.882 623.414 680.799 624.116 680.676 624.776 680.511 626.921 680.017 629.065 679.44 631.21 678.782 633.355 678.123 635.417 677.299 637.397 676.311 637.892 674.169 638.346 672.028 638.758 669.887 639.171 667.745 639.542 665.522 639.872 663.216 640.367 659.921 640.738 656.627 640.985 653.333 641.233 650.039 641.439 646.991 641.604 644.191ZM1005.52 636.285C1004.94 636.285 1004.32 636.367 1003.66 636.532 997.889 637.52 992.734 640.115 988.197 644.315 983.66 648.515 979.659 653.004 976.194 657.78 975.534 658.769 974.874 659.798 974.214 660.869 973.554 661.939 972.894 662.969 972.234 663.957 969.429 669.393 966.913 675.364 964.686 681.87 962.459 688.376 960.933 695.006 960.108 701.759 959.943 703.242 959.819 704.642 959.737 705.96 959.654 707.277 959.613 708.595 959.613 709.913 959.613 715.348 960.397 720.619 961.964 725.726 963.531 730.832 966.13 735.526 969.76 739.809 970.254 740.632 971.038 741.168 972.111 741.415 973.183 741.662 974.297 741.868 975.451 742.032 975.616 742.032 975.781 742.032 975.947 742.032 976.111 742.032 976.194 742.032 976.194 742.032 977.679 742.032 978.999 742.197 980.153 742.527 981.309 742.856 981.886 743.762 981.886 745.244 981.886 745.409 981.845 745.697 981.762 746.109 981.68 746.521 981.556 746.974 981.391 747.468 983.701 749.444 986.176 750.762 988.815 751.421 991.455 752.08 994.177 752.574 996.982 752.904 996.982 752.904 997.064 752.945 997.229 753.027 997.395 753.109 997.477 753.151 997.477 753.151 997.807 753.151 998.178 753.192 998.59 753.274 999.003 753.357 999.374 753.398 999.704 753.398 1005.81 752.904 1011.05 750.803 1015.42 747.097 1019.79 743.391 1023.96 739.232 1027.92 734.62 1032.87 727.702 1037.11 720.002 1040.66 711.519 1044.21 703.036 1046.31 694.347 1046.97 685.452 1047.14 684.464 1047.22 683.517 1047.22 682.611 1047.22 681.705 1047.22 680.841 1047.22 680.017 1047.22 675.24 1046.72 670.546 1045.73 665.934 1044.75 661.321 1043.1 656.874 1040.79 652.592L1030.14 665.193C1030.14 664.534 1030.06 663.834 1029.9 663.092 1029.73 662.351 1029.65 661.569 1029.65 660.745 1028.99 657.121 1028.04 653.58 1026.8 650.121 1025.57 646.662 1023.71 643.532 1021.23 640.732 1019.09 639.25 1016.86 638.138 1014.55 637.397 1012.24 636.656 1009.77 636.285 1007.13 636.285 1006.63 636.285 1006.1 636.285 1005.52 636.285ZM1166.34 625.661 1153.72 634.308C1152.4 635.956 1151.2 637.808 1150.13 639.867 1149.06 641.926 1148.36 644.026 1148.03 646.168 1147.86 646.991 1147.74 647.774 1147.65 648.515 1147.57 649.256 1147.53 649.956 1147.53 650.615 1147.53 651.604 1147.61 652.551 1147.78 653.456 1147.94 654.362 1148.27 655.227 1148.77 656.051 1149.76 654.404 1150.79 652.756 1151.86 651.109 1152.93 649.462 1154.05 647.897 1155.2 646.415 1157.51 642.956 1159.7 639.538 1161.76 636.161 1163.82 632.785 1165.35 629.284 1166.34 625.661ZM990.053 624.425C988.898 624.425 987.702 624.672 986.464 625.166 985.227 625.661 984.031 626.155 982.876 626.649 982.381 626.978 981.845 627.266 981.267 627.514 980.69 627.761 980.071 627.966 979.411 628.132 965.717 635.708 956.066 646.332 950.456 660.004 944.847 673.675 941.877 688.088 941.547 703.242 947.817 694.841 953.88 686.029 959.737 676.805 965.594 667.581 971.244 658.274 976.689 648.886 978.999 644.768 981.267 640.65 983.494 636.532 985.722 632.414 987.908 628.378 990.053 624.425ZM411.148 603.918C413.457 603.918 415.726 604.042 417.953 604.289 420.18 604.536 422.449 604.906 424.759 605.401L426.986 607.624C426.656 608.281 426.409 608.895 426.244 609.468 426.079 610.04 426.079 610.491 426.244 610.821 426.244 612.295 427.068 613.196 428.718 613.523 430.368 613.85 432.183 614.096 434.163 614.26 434.328 614.26 434.452 614.26 434.534 614.26 434.617 614.26 434.74 614.26 434.905 614.26 436.39 614.26 437.792 614.384 439.113 614.629 440.433 614.875 441.505 615.325 442.33 615.978 449.094 618.436 453.961 622.369 456.931 627.776 459.901 633.184 462.128 638.837 463.613 644.736 463.943 646.372 464.273 647.969 464.603 649.527 464.933 651.084 465.263 652.599 465.593 654.074L476.234 643.203C478.709 647.486 480.4 652.221 481.307 657.41 482.215 662.598 482.669 667.91 482.669 673.346 482.669 673.675 482.669 674.005 482.669 674.334 482.669 674.664 482.669 674.993 482.669 675.322 482.669 675.817 482.669 676.228 482.669 676.558 482.669 676.887 482.669 677.217 482.669 677.546 480.854 679.523 478.668 680.717 476.11 681.129 473.553 681.541 470.872 681.829 468.068 681.993 467.902 681.993 467.779 681.993 467.696 681.993 467.614 681.993 467.572 681.993 467.572 681.993 466.088 681.993 464.644 682.035 463.241 682.117 461.839 682.2 460.478 682.405 459.158 682.735 458.168 681.746 457.467 680.593 457.054 679.276 456.642 677.958 456.271 676.64 455.941 675.322 455.941 675.158 455.941 675.076 455.941 675.076 455.941 675.076 455.941 674.993 455.941 674.828 455.611 673.84 455.322 672.852 455.075 671.863 454.827 670.875 454.456 669.969 453.961 669.146 453.631 668.981 453.301 668.857 452.971 668.775 452.641 668.693 452.311 668.652 451.982 668.652 451.486 668.487 451.074 668.404 450.744 668.404 450.414 668.404 450.084 668.404 449.754 668.404 448.929 668.404 448.104 668.487 447.279 668.652 446.454 668.816 445.629 668.981 444.804 669.146 444.639 669.146 444.516 669.146 444.433 669.146 444.351 669.146 444.31 669.146 444.31 669.146 443.485 669.31 442.701 669.475 441.959 669.64 441.216 669.804 440.515 669.887 439.855 669.887 439.36 668.572 438.948 667.219 438.617 665.827 438.288 664.436 438.04 663.005 437.875 661.533 437.875 661.533 437.875 661.45 437.875 661.285 437.875 661.121 437.792 661.039 437.628 661.039 436.968 657.276 436.019 653.676 434.781 650.239 433.544 646.801 430.946 644.266 426.986 642.632 425.336 641.975 423.604 641.442 421.789 641.033 419.974 640.624 418.16 640.419 416.344 640.419 415.85 640.419 415.355 640.419 414.86 640.419 414.365 640.419 413.87 640.502 413.375 640.666 413.54 640.34 413.664 639.971 413.746 639.563 413.829 639.153 413.87 638.785 413.87 638.458 413.87 637.148 413.251 636.043 412.014 635.144 410.776 634.245 409.498 633.549 408.178 633.057 407.518 632.731 406.817 632.403 406.074 632.075 405.332 631.747 404.713 631.501 404.218 631.339 404.053 631.175 403.929 631.052 403.847 630.971 403.765 630.89 403.641 630.849 403.476 630.849 403.311 630.849 403.104 630.849 402.857 630.849 402.609 630.849 402.321 630.767 401.991 630.602 401.826 630.602 401.62 630.602 401.372 630.602 401.125 630.602 400.836 630.602 400.506 630.602 393.742 630.764 387.72 632.886 382.44 636.966 377.16 641.047 372.458 645.616 368.334 650.673 367.344 651.654 366.436 652.715 365.612 653.858 364.787 655 363.962 656.061 363.137 657.039 359.012 663.98 355.671 671.211 353.114 678.729 350.557 686.248 349.196 694.139 349.031 702.4 348.371 703.062 347.917 704.012 347.67 705.251 347.422 706.49 347.298 707.772 347.298 709.094 347.298 709.588 347.298 710.084 347.298 710.581 347.298 711.077 347.298 711.573 347.298 712.067 347.298 712.232 347.298 712.356 347.298 712.44 347.298 712.523 347.298 712.565 347.298 712.565 347.298 712.73 347.298 712.853 347.298 712.936 347.298 713.018 347.298 713.141 347.298 713.306L349.031 714.051C349.031 717.356 349.196 720.413 349.525 723.222 349.856 726.031 350.763 728.757 352.248 731.401 354.063 730.41 355.506 729.253 356.579 727.932 357.651 726.61 358.682 725.206 359.672 723.718 360.002 723.386 360.25 723.055 360.415 722.726 360.58 722.396 360.827 722.066 361.157 721.734 361.487 721.072 361.899 720.453 362.394 719.875 362.89 719.297 363.384 718.678 363.879 718.016 364.044 719.007 364.168 719.998 364.25 720.991 364.333 721.983 364.457 723.057 364.622 724.212 365.612 729.005 367.22 733.708 369.447 738.323 371.675 742.937 375.016 746.644 379.47 749.444 380.79 750.103 382.193 750.639 383.678 751.051 385.163 751.462 386.647 751.668 388.132 751.668 388.792 751.668 389.411 751.627 389.988 751.545 390.566 751.462 391.102 751.421 391.597 751.421 393.577 751.092 395.515 750.639 397.413 750.062 399.31 749.486 401.083 748.868 402.733 748.209 403.228 748.044 403.682 747.88 404.094 747.715 404.507 747.551 404.961 747.385 405.456 747.221L399.516 761.304C400.341 761.469 401.207 761.592 402.115 761.675 403.022 761.757 403.888 761.799 404.713 761.799 413.127 761.799 420.84 759.122 427.852 753.768 434.864 748.415 440.433 742.197 444.557 735.114 445.217 735.114 445.836 735.073 446.413 734.991 446.99 734.909 447.609 734.785 448.269 734.62 450.744 734.291 453.301 734.003 455.941 733.755 458.581 733.508 461.221 733.385 463.86 733.385 464.025 733.385 464.19 733.385 464.355 733.385 464.52 733.385 464.685 733.385 464.85 733.385 464.85 733.385 464.933 733.385 465.098 733.385 465.263 733.385 465.427 733.385 465.593 733.385 459.983 748.868 450.332 761.675 436.638 771.805 422.944 781.935 407.765 787 391.102 787L387.885 787C387.72 786.671 387.637 786.382 387.637 786.135 387.637 785.888 387.637 785.682 387.637 785.517 387.637 785.023 387.72 784.488 387.885 783.912 388.049 783.335 388.297 782.8 388.627 782.306 388.792 781.976 388.957 781.647 389.122 781.317 389.287 780.988 389.534 780.741 389.865 780.576 390.194 779.752 390.566 778.97 390.978 778.229 391.391 777.488 391.679 776.705 391.844 775.882 391.349 775.882 390.854 775.923 390.359 776.005 389.865 776.088 389.369 776.211 388.875 776.376 387.06 776.705 385.121 776.993 383.059 777.24 380.996 777.488 378.893 777.611 376.748 777.611 373.943 777.611 371.18 777.323 368.458 776.746 365.735 776.17 363.219 775.305 360.91 774.152 355.96 771.352 351.877 767.893 348.659 763.775 345.442 759.657 342.679 755.127 340.369 750.186L332.202 756.61C328.902 749.857 326.428 742.856 324.778 735.609 323.128 728.361 322.386 721.031 322.551 713.619 322.551 699.948 324.984 686.523 329.851 673.346 334.718 660.169 341.194 648.391 349.278 638.014 357.362 628.296 366.602 620.184 376.996 613.677 387.39 607.171 398.774 603.918 411.148 603.918ZM656.453 601.2C656.618 601.859 656.742 602.477 656.824 603.053 656.906 603.63 656.948 604.165 656.948 604.659 656.948 605.812 656.824 606.965 656.577 608.118 656.329 609.271 656.123 610.425 655.958 611.577 655.793 611.742 655.71 611.866 655.71 611.948 655.71 612.03 655.71 612.072 655.71 612.072 655.545 613.389 655.339 614.666 655.092 615.901 654.844 617.137 654.72 618.413 654.72 619.731 654.72 620.39 654.762 621.008 654.844 621.584 654.927 622.16 655.051 622.696 655.216 623.19 656.205 622.696 657.113 622.078 657.938 621.337 658.763 620.596 659.587 619.896 660.412 619.237 660.578 619.072 660.784 618.866 661.031 618.619 661.279 618.372 661.485 618.166 661.65 618.001 663.465 616.519 665.28 615.242 667.094 614.172 668.909 613.101 671.054 612.566 673.529 612.566 673.694 612.566 673.818 612.566 673.9 612.566 673.982 612.566 674.106 612.566 674.271 612.566 674.271 612.566 674.313 612.566 674.395 612.566 674.478 612.566 674.601 612.566 674.766 612.566L655.71 728.196 655.71 731.161 657.69 731.161C659.34 728.361 661.072 725.602 662.887 722.884 664.702 720.166 666.6 717.49 668.579 714.854 670.559 712.219 672.58 709.542 674.642 706.824 676.705 704.107 678.726 701.348 680.706 698.548 679.551 706.289 678.272 714.154 676.87 722.143 675.467 730.132 673.941 738.244 672.291 746.48 671.302 751.751 670.27 757.104 669.198 762.54 668.126 767.975 667.012 773.329 665.857 778.599L640.367 783.541 644.574 754.386C642.594 755.045 640.985 756.239 639.748 757.969 638.511 759.698 637.397 761.551 636.407 763.528 635.087 765.999 633.644 768.264 632.076 770.323 630.509 772.381 628.158 773.411 625.023 773.411 624.693 773.411 624.322 773.411 623.91 773.411 623.497 773.411 623.043 773.329 622.548 773.164L632.2 706.948 630.963 705.713 602.503 710.901C602.833 710.078 603.245 709.213 603.74 708.307 604.235 707.401 604.73 706.536 605.225 705.713 606.215 704.23 607.081 702.789 607.823 701.389 608.566 699.989 608.937 698.548 608.937 697.065 608.937 696.735 608.937 696.53 608.937 696.447 608.937 696.365 608.937 696.241 608.937 696.077 608.607 696.077 608.236 696.118 607.823 696.2 607.411 696.283 607.04 696.324 606.71 696.324 605.555 696.489 604.4 696.694 603.245 696.941 602.09 697.189 600.935 697.394 599.781 697.559 593.181 698.548 586.705 699.783 580.353 701.265 574.002 702.748 568.021 704.971 562.411 707.936L550.78 773.164 525.537 777.364C526.032 774.399 526.486 771.393 526.898 768.346 527.311 765.299 527.682 762.21 528.012 759.081 528.342 757.104 528.631 755.127 528.878 753.151 529.126 751.174 529.414 749.115 529.744 746.974 530.899 738.738 532.384 730.502 534.199 722.266 536.014 714.031 538.654 706.124 542.118 698.548 538.489 701.512 535.23 705.013 532.343 709.048 529.456 713.084 526.692 717.243 524.052 721.525 523.887 721.69 523.764 721.855 523.681 722.02 523.598 722.184 523.557 722.266 523.557 722.266 521.743 725.067 519.928 727.826 518.113 730.544 516.298 733.261 514.401 735.855 512.421 738.327L512.668 726.961 533.952 611.825 560.184 606.636 552.512 663.463C553.007 663.957 553.502 664.286 553.997 664.451 554.492 664.616 554.987 664.698 555.482 664.698 555.812 664.698 556.142 664.657 556.472 664.575 556.802 664.493 557.132 664.451 557.462 664.451 557.627 664.286 557.792 664.204 557.957 664.204 558.122 664.204 558.287 664.122 558.452 663.957 558.947 663.957 559.442 663.875 559.937 663.71 560.431 663.545 560.927 663.463 561.421 663.463 563.731 661.816 565.629 659.921 567.113 657.78 568.598 655.639 570.001 653.415 571.321 651.109 571.486 651.109 571.568 651.068 571.568 650.986 571.568 650.904 571.568 650.862 571.568 650.862 572.228 649.709 572.929 648.556 573.672 647.403 574.414 646.25 575.198 645.18 576.023 644.191L568.598 676.311C574.373 676.311 579.982 675.817 585.427 674.828 590.871 673.84 596.316 672.687 601.76 671.369 604.565 670.711 607.328 670.052 610.051 669.393 612.773 668.734 615.536 668.157 618.341 667.663 619.826 663.051 621.063 658.274 622.054 653.333 623.043 648.391 624.033 643.368 625.023 638.261 625.188 637.108 625.353 635.956 625.518 634.802 625.683 633.649 625.931 632.496 626.26 631.343 626.921 627.061 627.704 622.86 628.612 618.742 629.519 614.625 630.633 610.589 631.952 606.636 634.097 605.483 636.407 604.659 638.882 604.165 641.357 603.671 643.914 603.177 646.554 602.683 646.884 602.683 647.214 602.683 647.544 602.683 647.873 602.683 648.204 602.601 648.533 602.436 649.854 602.271 651.173 602.106 652.493 601.942 653.813 601.777 655.133 601.53 656.453 601.2ZM1181.93 597C1181.93 598.483 1181.56 600.047 1180.82 601.694 1180.07 603.342 1179.21 605.071 1178.22 606.883 1177.89 607.377 1177.56 607.995 1177.23 608.736 1176.9 609.477 1176.57 610.177 1176.24 610.836 1176.07 611.33 1175.87 611.866 1175.62 612.442 1175.37 613.019 1175.17 613.636 1175 614.295 1175.99 613.966 1176.94 613.636 1177.85 613.307 1178.75 612.977 1179.7 612.648 1180.69 612.318 1183.99 611.33 1187.46 610.383 1191.09 609.477 1194.72 608.571 1198.43 607.954 1202.22 607.624 1203.05 607.624 1203.91 607.583 1204.82 607.501 1205.73 607.418 1206.6 607.377 1207.42 607.377 1210.72 607.377 1213.9 607.707 1216.95 608.366 1220 609.024 1222.85 610.177 1225.49 611.825 1226.81 611.989 1227.88 612.525 1228.7 613.431 1229.53 614.336 1230.27 615.366 1230.93 616.519 1230.93 616.684 1231.01 616.89 1231.18 617.137 1231.34 617.384 1231.51 617.672 1231.67 618.001 1232.33 619.154 1233.12 620.06 1234.02 620.719 1234.93 621.378 1236.21 621.213 1237.86 620.225 1240.17 620.225 1242.23 621.008 1244.05 622.572 1245.86 624.137 1247.51 625.825 1249 627.637 1249.49 628.461 1249.99 629.202 1250.48 629.861 1250.98 630.52 1251.47 631.179 1251.97 631.838 1253.45 635.461 1254.32 639.332 1254.56 643.45 1254.81 647.568 1254.94 651.768 1254.94 656.051 1251.14 657.698 1247.14 659.016 1242.93 660.004 1238.73 660.992 1234.31 661.733 1229.69 662.228 1229.2 658.933 1228.41 655.763 1227.34 652.715 1226.27 649.668 1224.33 646.991 1221.53 644.685 1220.54 644.685 1219.75 644.973 1219.18 645.55 1218.6 646.127 1218.06 646.827 1217.57 647.65 1217.07 648.474 1216.45 649.215 1215.71 649.874 1214.97 650.533 1213.85 650.615 1212.37 650.121 1212.21 649.462 1212.04 648.721 1211.88 647.897 1211.71 647.074 1211.55 646.25 1211.38 645.427 1210.89 643.285 1210.1 641.226 1209.03 639.25 1207.96 637.273 1206.35 635.873 1204.2 635.049 1202.88 634.72 1201.6 634.473 1200.37 634.308 1199.13 634.143 1197.85 634.061 1196.53 634.061 1192.57 634.061 1188.82 634.802 1185.27 636.285 1181.72 637.767 1178.3 639.579 1175 641.721 1172.36 644.026 1170.09 646.538 1168.2 649.256 1166.3 651.974 1165.02 654.898 1164.36 658.027 1165.02 664.451 1167.62 668.281 1172.16 669.516 1176.69 670.752 1181.6 671.452 1186.88 671.616 1187.04 671.616 1187.21 671.616 1187.37 671.616 1187.54 671.616 1187.7 671.616 1187.87 671.616 1190.18 671.616 1192.49 671.699 1194.8 671.863 1197.11 672.028 1199.17 672.358 1200.99 672.852 1200.99 673.346 1200.86 673.799 1200.61 674.211 1200.37 674.622 1200.16 675.076 1200 675.569 1199.67 676.064 1199.38 676.599 1199.13 677.176 1198.88 677.752 1198.84 678.452 1199.01 679.276 1200.99 679.77 1203.09 680.182 1205.32 680.511 1207.54 680.841 1209.81 681.17 1212.12 681.499 1212.78 681.499 1213.4 681.541 1213.98 681.623 1214.56 681.705 1215.09 681.746 1215.59 681.746 1222.68 682.735 1229.2 684.464 1235.14 686.935 1241.08 689.406 1244.54 694.924 1245.53 703.489L1246.77 704.724 1254.94 698.3C1258.07 700.936 1260.22 704.148 1261.37 707.936 1262.53 711.725 1263.1 715.76 1263.1 720.043 1263.1 720.537 1263.1 721.072 1263.1 721.649 1263.1 722.225 1263.1 722.843 1263.1 723.502 1262.77 726.796 1262.24 730.132 1261.49 733.508 1260.75 736.885 1259.97 739.974 1259.14 742.774 1254.69 754.963 1246.98 765.299 1236 773.781 1225.03 782.264 1213.03 786.671 1200 787 1200 785.517 1200.37 784.158 1201.11 782.923 1201.85 781.688 1202.64 780.494 1203.46 779.341 1203.46 779.341 1203.5 779.299 1203.58 779.217 1203.67 779.135 1203.71 779.011 1203.71 778.847 1204.53 777.693 1205.32 776.499 1206.06 775.264 1206.8 774.029 1207.26 772.587 1207.42 770.94 1206.93 771.27 1206.35 771.558 1205.69 771.805 1205.03 772.052 1204.45 772.34 1203.96 772.67 1200 774.482 1195.71 776.17 1191.09 777.735 1186.47 779.299 1181.77 780.411 1176.98 781.07 1175.83 781.07 1174.71 781.111 1173.64 781.194 1172.57 781.276 1171.45 781.317 1170.3 781.317 1166.83 781.317 1163.41 780.906 1160.03 780.082 1156.65 779.258 1153.47 777.776 1150.5 775.634 1149.02 773.493 1147.2 771.846 1145.06 770.693 1142.91 769.54 1140.77 768.387 1138.62 767.234 1138.46 767.234 1138.25 767.193 1138 767.11 1137.76 767.028 1137.55 766.905 1137.38 766.74 1134.41 765.422 1131.61 763.899 1128.97 762.169 1126.33 760.44 1124.43 757.763 1123.28 754.139 1123.11 753.81 1122.99 753.439 1122.91 753.027 1122.82 752.616 1122.78 752.245 1122.78 751.915 1122.45 750.927 1122.21 749.98 1122.04 749.074 1121.88 748.168 1121.71 747.221 1121.55 746.233 1121.22 744.915 1120.97 743.597 1120.8 742.279 1120.64 740.962 1120.56 739.644 1120.56 738.327 1120.56 736.514 1120.76 734.744 1121.17 733.014 1121.59 731.285 1122.29 729.596 1123.28 727.949L1146.05 722.761C1146.21 723.584 1146.33 724.408 1146.42 725.231 1146.5 726.055 1146.54 726.796 1146.54 727.455 1146.87 729.926 1147.24 732.273 1147.65 734.497 1148.07 736.72 1149.02 738.738 1150.5 740.55 1151 740.715 1151.53 740.92 1152.11 741.168 1152.69 741.415 1153.31 741.703 1153.97 742.032 1154.79 742.362 1155.61 742.691 1156.44 743.021 1157.26 743.35 1158.17 743.515 1159.16 743.515 1159.49 743.515 1159.9 743.433 1160.4 743.268 1160.89 743.103 1161.39 742.938 1161.88 742.774L1163.86 740.55C1164.03 741.044 1164.19 741.538 1164.36 742.032 1164.52 742.527 1164.69 743.021 1164.85 743.515 1165.84 745.492 1167.25 747.427 1169.06 749.321 1170.88 751.215 1172.86 752.492 1175 753.151 1176.32 753.645 1177.6 754.016 1178.84 754.263 1180.07 754.51 1181.27 754.633 1182.43 754.633 1184.9 754.633 1187.37 754.304 1189.85 753.645 1192.32 752.986 1194.8 752.162 1197.27 751.174 1198.1 751.01 1198.88 750.762 1199.62 750.433 1200.37 750.103 1201.15 749.857 1201.98 749.692 1202.14 749.527 1202.26 749.403 1202.35 749.321 1202.43 749.239 1202.55 749.198 1202.72 749.198 1206.51 746.233 1210.02 742.815 1213.24 738.944 1216.45 735.073 1218.06 730.502 1218.06 725.231 1218.06 725.231 1218.06 725.19 1218.06 725.108 1218.06 725.026 1218.06 724.984 1218.06 724.984 1218.06 724.984 1218.06 724.943 1218.06 724.861 1218.06 724.779 1218.06 724.737 1218.06 724.737 1216.41 719.302 1213.36 716.048 1208.91 714.978 1204.45 713.907 1199.75 713.207 1194.8 712.878 1194.63 712.878 1194.51 712.878 1194.43 712.878 1194.35 712.878 1194.22 712.878 1194.06 712.878 1191.91 712.713 1189.73 712.507 1187.5 712.26 1185.27 712.013 1183.17 711.56 1181.19 710.901 1181.19 710.736 1181.19 710.613 1181.19 710.531 1181.19 710.448 1181.19 710.324 1181.19 710.16 1181.19 709.666 1181.31 709.13 1181.56 708.554 1181.81 707.977 1182.1 707.442 1182.43 706.948 1182.59 706.454 1182.8 705.96 1183.04 705.465 1183.29 704.971 1183.42 704.477 1183.42 703.983 1183.42 703.489 1183.25 703.036 1182.92 702.624 1182.59 702.212 1182.01 701.924 1181.19 701.759 1180.36 701.759 1179.41 701.8 1178.34 701.883 1177.27 701.965 1176.24 702.089 1175.25 702.254 1174.75 702.254 1174.26 702.254 1173.76 702.254 1173.27 702.254 1172.77 702.254 1172.28 702.254 1171.45 702.254 1170.59 702.212 1169.68 702.13 1168.77 702.048 1167.91 702.007 1167.08 702.007 1161.14 701.512 1155.41 700.153 1149.88 697.93 1144.35 695.706 1140.27 691.794 1137.63 686.194 1137.47 685.7 1137.34 685.247 1137.26 684.835 1137.18 684.423 1137.05 683.97 1136.89 683.476 1136.72 682.652 1136.56 681.911 1136.39 681.252 1136.23 680.593 1135.98 679.935 1135.65 679.276L1127.49 684.711C1124.52 682.405 1122.41 679.646 1121.17 676.434 1119.94 673.222 1119.32 669.804 1119.32 666.181 1119.32 665.357 1119.36 664.493 1119.44 663.586 1119.52 662.68 1119.57 661.733 1119.57 660.745 1120.06 658.11 1120.64 655.433 1121.3 652.715 1121.96 649.997 1122.7 647.403 1123.53 644.932 1123.86 644.109 1124.14 643.326 1124.39 642.585 1124.64 641.844 1124.85 641.144 1125.01 640.485 1129.96 628.625 1137.63 619.319 1148.03 612.566 1158.42 605.812 1169.31 600.706 1180.69 597.247 1180.86 597.247 1181.06 597.206 1181.31 597.124 1181.56 597.041 1181.77 597 1181.93 597ZM1005.64 597C1005.31 598.153 1004.9 599.306 1004.41 600.459 1003.91 601.612 1003.33 602.683 1002.67 603.671 1002.51 604.001 1002.34 604.33 1002.18 604.659 1002.01 604.989 1001.85 605.318 1001.68 605.648 1001.52 606.142 1001.31 606.595 1001.07 607.007 1000.82 607.418 1000.61 607.871 1000.45 608.366 1002.76 608.036 1005.19 607.707 1007.75 607.377 1010.3 607.048 1012.9 606.883 1015.54 606.883 1020.82 606.883 1025.9 607.583 1030.76 608.983 1035.63 610.383 1039.88 612.977 1043.51 616.766L1054.89 630.108 1059.59 626.402C1064.87 632.661 1068.63 639.826 1070.85 647.897 1073.08 655.968 1074.19 664.204 1074.19 672.605 1074.19 673.263 1074.19 673.964 1074.19 674.705 1074.19 675.446 1074.19 676.146 1074.19 676.805 1073.87 683.888 1072.92 690.888 1071.35 697.806 1069.78 704.724 1067.84 711.231 1065.53 717.325L1066.03 717.819 1090.03 687.182C1090.2 702.171 1086.98 716.543 1080.38 730.296 1073.78 744.05 1065.29 756.61 1054.89 767.975 1050.6 771.764 1046.19 775.223 1041.65 778.352 1037.11 781.482 1032.45 784.365 1027.67 787 1028.49 784.035 1029.69 781.029 1031.26 777.982 1032.82 774.934 1034.52 771.928 1036.33 768.964 1036.5 768.634 1036.66 768.346 1036.83 768.099 1036.99 767.852 1037.16 767.564 1037.32 767.234 1038.64 764.763 1039.96 762.292 1041.28 759.822 1042.6 757.351 1043.67 754.88 1044.5 752.41 1036.41 760.81 1027.75 767.934 1018.51 773.781 1009.27 779.629 998.797 782.635 987.083 782.8 986.258 782.635 985.351 782.511 984.361 782.429 983.371 782.347 982.463 782.223 981.638 782.058 977.844 781.399 974.297 780.247 970.997 778.599 967.697 776.952 965.305 774.564 963.82 771.434 957.716 770.775 952.189 768.552 947.239 764.763 942.29 760.975 938.577 756.198 936.103 750.433 934.453 746.315 933.05 742.156 931.895 737.956 930.741 733.755 929.998 729.432 929.668 724.984L919.027 736.35C917.542 731.079 916.428 725.849 915.686 720.661 914.943 715.472 914.572 710.324 914.572 705.218 914.572 688.253 918.284 672.152 925.708 656.915 933.133 641.679 943.032 628.049 955.406 616.025 962.335 609.601 970.048 604.865 978.545 601.818 987.042 598.771 996.075 597.165 1005.64 597ZM806.067 597C806.232 597.165 806.355 597.371 806.438 597.618 806.52 597.865 806.562 598.071 806.562 598.235 806.562 598.565 806.562 598.812 806.562 598.977 806.562 599.141 806.562 599.388 806.562 599.718 806.562 600.706 806.397 601.653 806.067 602.559 805.737 603.465 805.325 604.33 804.829 605.153 804.334 606.471 803.881 607.707 803.468 608.859 803.056 610.013 803.18 611.083 803.84 612.072L825.123 607.871C825.948 612.977 826.855 618.207 827.845 623.56 828.835 628.914 829.825 634.308 830.815 639.744 830.979 640.897 831.186 642.132 831.433 643.45 831.681 644.768 831.887 646.003 832.052 647.156 832.712 651.439 833.413 655.639 834.155 659.757 834.898 663.875 835.599 667.993 836.259 672.11L848.88 656.298C850.2 662.722 851.314 669.228 852.221 675.817 853.129 682.405 853.995 688.994 854.82 695.583 854.985 696.241 855.109 696.9 855.191 697.559 855.274 698.218 855.315 698.794 855.315 699.289 856.14 706.701 857.13 714.031 858.285 721.278 859.439 728.526 860.842 735.609 862.492 742.527L875.36 726.714C876.35 731.655 877.217 736.761 877.959 742.032 878.701 747.303 879.402 752.657 880.062 758.092 880.558 761.881 880.97 765.628 881.3 769.334 881.63 773.04 881.96 776.705 882.29 780.329 880.31 781.153 878.289 781.811 876.227 782.306 874.164 782.8 872.061 783.212 869.916 783.541 869.586 783.541 869.297 783.582 869.05 783.664 868.802 783.747 868.514 783.788 868.184 783.788 866.039 784.282 863.853 784.735 861.625 785.147 859.398 785.559 857.295 786.176 855.315 787 854.82 785.517 854.449 783.994 854.201 782.429 853.954 780.864 853.748 779.258 853.583 777.611 853.583 777.447 853.583 777.282 853.583 777.117 853.583 776.952 853.5 776.788 853.335 776.623 853.17 774.482 852.923 772.381 852.593 770.323 852.263 768.264 851.603 766.328 850.613 764.516 849.623 765.01 848.798 765.71 848.138 766.616 847.478 767.522 846.901 768.552 846.406 769.705 846.406 769.705 846.364 769.705 846.282 769.705 846.199 769.705 846.158 769.787 846.158 769.952 845.333 771.27 844.467 772.505 843.56 773.658 842.652 774.811 841.374 775.388 839.724 775.388 839.394 775.388 839.023 775.346 838.61 775.264 838.198 775.182 837.744 775.058 837.249 774.893L833.042 745.739C832.877 745.739 832.712 745.739 832.547 745.739 832.382 745.739 832.3 745.739 832.3 745.739 832.135 745.739 831.969 745.739 831.804 745.739 831.64 745.739 831.475 745.739 831.31 745.739 827.02 745.739 822.813 746.15 818.688 746.974 814.564 747.797 810.521 748.786 806.562 749.939 806.397 749.939 806.232 749.98 806.067 750.062 805.902 750.145 805.737 750.186 805.572 750.186 802.932 750.845 800.333 751.462 797.776 752.039 795.219 752.616 792.62 753.151 789.981 753.645 789.981 752.492 790.269 751.339 790.847 750.186 791.425 749.033 792.043 747.962 792.703 746.974 793.033 746.315 793.404 745.697 793.817 745.121 794.229 744.544 794.518 743.927 794.683 743.268 795.013 742.774 795.219 742.238 795.302 741.662 795.384 741.085 795.425 740.55 795.425 740.056 795.425 739.562 795.425 739.109 795.425 738.697 795.425 738.285 795.26 737.914 794.93 737.585L766.47 744.256C764.161 748.209 762.057 752.286 760.16 756.486 758.262 760.686 756.489 764.846 754.839 768.964 754.674 769.128 754.592 769.293 754.592 769.458 754.592 769.623 754.509 769.787 754.344 769.952 753.684 771.599 752.983 773.287 752.24 775.017 751.498 776.746 750.714 778.517 749.889 780.329L725.141 785.271C728.441 776.211 731.947 767.152 735.659 758.092 739.372 749.033 743.125 739.974 746.92 730.914 748.405 727.455 749.889 724.037 751.374 720.661 752.859 717.284 754.344 713.866 755.829 710.407 760.283 700.359 764.656 690.188 768.945 679.893 773.235 669.599 777.359 659.345 781.319 649.133L776.865 653.58 711.778 756.857 779.092 602.189C781.402 602.024 783.67 601.694 785.897 601.2 788.125 600.706 790.393 600.212 792.703 599.718 792.703 599.718 792.744 599.677 792.827 599.594 792.909 599.512 793.033 599.471 793.198 599.471 795.343 598.977 797.446 598.483 799.509 597.988 801.571 597.494 803.757 597.165 806.067 597ZM531.724 597C529.579 602.601 526.981 608.118 523.929 613.554 520.876 618.99 517.041 624.014 512.421 628.625 512.421 628.461 512.421 628.255 512.421 628.008 512.421 627.761 512.421 627.555 512.421 627.39 512.256 627.225 512.173 627.02 512.173 626.773 512.173 626.525 512.173 626.319 512.173 626.155 512.173 624.178 512.421 622.119 512.916 619.978 513.411 617.837 513.906 615.695 514.401 613.554 514.896 611.577 515.349 609.56 515.762 607.501 516.174 605.442 516.463 603.342 516.628 601.2ZM364.374 597C360.745 603.918 356.991 610.96 353.114 618.125 349.237 625.29 345.236 632.496 341.111 639.744 335.667 649.297 329.81 658.81 323.54 668.281 317.271 677.752 310.424 686.935 303 695.83 303.495 692.041 304.155 688.253 304.98 684.464 305.804 680.676 306.795 676.805 307.949 672.852 312.404 658.027 319.333 643.738 328.737 629.984 338.142 616.231 350.021 605.236 364.374 597Z" fill-rule="evenodd"/></g></svg>